<svg xmlns="http://www.w3.org/2000/svg" height="24" viewBox="0 -960 960 960" width="24"><path d="M441.913-603.587v-120h-120v-80h120v-120h80v120h120v80h-120v120h-80ZM280-76.413q-33 0-56.5-23.5t-23.5-56.5q0-33 23.5-56.5t56.5-23.5q33 0 56.5 23.5t23.5 56.5q0 33-23.5 56.5t-56.5 23.5Zm400 0q-33 0-56.5-23.5t-23.5-56.5q0-33 23.5-56.5t56.5-23.5q33 0 56.5 23.5t23.5 56.5q0 33-23.5 56.5t-56.5 23.5Zm-400-200q-47.63 0-72.348-41.413-24.717-41.413-1-82.087L259.935-496 117.848-796.413H36.413v-87.174h136.978l168.087 356.174h280.044l153.087-276.174 76.695 41.348-154.282 278.326q-11.478 20.717-30.281 32.315Q647.939-440 623.913-440H328.065l-41.847 76.413h477.369v87.174H280Z"/></svg>