<svg version="1.1" id="Layer_1" xmlns="http://www.w3.org/2000/svg" xmlns:xlink="http://www.w3.org/1999/xlink" viewBox="0 0 512 512" xml:space="preserve" fill="#000000"><g id="SVGRepo_bgCarrier" stroke-width="0"></g><g id="SVGRepo_tracerCarrier" stroke-linecap="round" stroke-linejoin="round"></g><g id="SVGRepo_iconCarrier"> <circle style="fill:#FFD300;" cx="256" cy="256" r="256"></circle> <path style="fill:#F9B54C;" d="M512,256L398.222,142.222L372.993,245.42L267.495,139.923c-1.15-1.15-54.015,46.545-54.015,46.545 l-90.957,92.162l218.224,218.989C440.479,462.641,512,367.68,512,256z"></path> <g> <rect x="256" y="199.111" style="fill:#935635;" width="34.478" height="113.778"></rect> <rect x="363.744" y="142.222" style="fill:#935635;" width="34.478" height="170.667"></rect> </g> <rect x="309.872" y="240.364" style="fill:#9A4F03;" width="34.478" height="72.525"></rect> <rect x="257.32" y="258.838" transform="matrix(-0.7071 0.7071 -0.7071 -0.7071 661.4862 293.8971)" style="fill:#2B3B4E;" width="25.11" height="50.217"></rect> <rect x="258.84" y="262.472" transform="matrix(-0.7071 0.7071 -0.7071 -0.7071 657.8347 302.6771)" style="fill:#1E2C3A;" width="14.782" height="50.217"></rect> <circle style="fill:#324A5E;" cx="192.94" cy="207.007" r="100.452"></circle> <path style="fill:#2B3B4E;" d="M123.53,134.446c-0.536,0.514-1.086,1.007-1.615,1.536c-39.226,39.226-39.226,102.822,0,142.048 s102.822,39.226,142.048,0c0.528-0.528,1.021-1.077,1.536-1.615L123.53,134.446z"></path> <circle style="fill:#B5F1F4;" cx="192.94" cy="207.007" r="75.333"></circle> <path style="fill:#84DBFF;" d="M141.286,152.202c-0.54,0.509-1.086,1.007-1.615,1.536c-29.418,29.418-29.418,77.117,0,106.536 s77.117,29.418,106.536,0c0.528-0.527,1.026-1.076,1.536-1.615L141.286,152.202z"></path> <path style="fill:#324A5E;" d="M400.72,389.856l-22.599,22.599c-4.21,4.21-11.035,4.21-15.246,0l-91.289-91.291 c-4.21-4.21-4.21-11.035,0-15.246l22.599-22.599c4.21-4.21,11.035-4.21,15.246,0l91.291,91.291 C404.93,378.821,404.93,385.646,400.72,389.856z"></path> <path style="fill:#2B3B4E;" d="M271.586,305.919c-4.21,4.21-4.21,11.035,0,15.246l91.291,91.291c4.21,4.21,11.035,4.21,15.246,0 l11.709-11.709L283.296,294.212L271.586,305.919z"></path> </g></svg>
