<svg xmlns="http://www.w3.org/2000/svg" height="24" viewBox="0 -960 960 960" width="24"><path d="M376.717-296.652 480-399.935l103.283 103.283 60.065-60.065L540.065-460l103.283-103.283-60.065-60.065L480-520.065 376.717-623.348l-60.065 60.065L419.935-460 316.652-356.717l60.065 60.065ZM277.37-111.869q-37.783 0-64.392-26.609-26.609-26.609-26.609-64.392v-514.5h-45.5v-91H354.5v-45.5h250.522v45.5h214.109v91h-45.5v514.5q0 37.783-26.609 64.392-26.609 26.609-64.392 26.609H277.37ZM682.63-717.37H277.37v514.5h405.26v-514.5Zm-405.26 0v514.5-514.5Z"/></svg>